<svg width="56" height="56" viewBox="0 0 56 56" fill="none" xmlns="http://www.w3.org/2000/svg">
<g clip-path="url(#clip0_17_233)">
<path d="M11.6667 16.333H14C15.2377 16.333 16.4247 15.8413 17.2998 14.9662C18.175 14.091 18.6667 12.904 18.6667 11.6663C18.6667 11.0475 18.9125 10.454 19.3501 10.0164C19.7877 9.57884 20.3812 9.33301 21 9.33301H35C35.6188 9.33301 36.2123 9.57884 36.6499 10.0164C37.0875 10.454 37.3333 11.0475 37.3333 11.6663C37.3333 12.904 37.825 14.091 38.7002 14.9662C39.5753 15.8413 40.7623 16.333 42 16.333H44.3333C45.571 16.333 46.758 16.8247 47.6332 17.6998C48.5083 18.575 49 19.762 49 20.9997V41.9997C49 43.2374 48.5083 44.4243 47.6332 45.2995C46.758 46.1747 45.571 46.6663 44.3333 46.6663H11.6667C10.429 46.6663 9.242 46.1747 8.36683 45.2995C7.49167 44.4243 7 43.2374 7 41.9997V20.9997C7 19.762 7.49167 18.575 8.36683 17.6998C9.242 16.8247 10.429 16.333 11.6667 16.333" stroke="black" stroke-width="2" stroke-linecap="round" stroke-linejoin="round"/>
<path d="M28 37.333C31.866 37.333 35 34.199 35 30.333C35 26.467 31.866 23.333 28 23.333C24.134 23.333 21 26.467 21 30.333C21 34.199 24.134 37.333 28 37.333Z" stroke="black" stroke-width="2" stroke-linecap="round" stroke-linejoin="round"/>
</g>
<defs>
<clipPath id="clip0_17_233">
<rect width="56" height="56" fill="white"/>
</clipPath>
</defs>
</svg>
