<svg width="40" height="40" viewBox="0 0 40 40" fill="none" xmlns="http://www.w3.org/2000/svg">
<g clip-path="url(#clip0_17_271)">
<path d="M13.3307 25.0003C13.3307 23.1594 11.8383 21.667 9.9974 21.667C8.15645 21.667 6.66406 23.1594 6.66406 25.0003V28.3337C6.66406 30.1746 8.15645 31.667 9.9974 31.667C11.8383 31.667 13.3307 30.1746 13.3307 28.3337V25.0003Z" stroke="white" stroke-width="2" stroke-linecap="round" stroke-linejoin="round"/>
<path d="M33.3307 25.0003C33.3307 23.1594 31.8383 21.667 29.9974 21.667C28.1564 21.667 26.6641 23.1594 26.6641 25.0003V28.3337C26.6641 30.1746 28.1564 31.667 29.9974 31.667C31.8383 31.667 33.3307 30.1746 33.3307 28.3337V25.0003Z" stroke="white" stroke-width="2" stroke-linecap="round" stroke-linejoin="round"/>
<path d="M6.66406 25.0003V20.0003C6.66406 16.4641 8.06882 13.0727 10.5693 10.5722C13.0698 8.07175 16.4612 6.66699 19.9974 6.66699C23.5336 6.66699 26.925 8.07175 29.4255 10.5722C31.926 13.0727 33.3307 16.4641 33.3307 20.0003V25.0003" stroke="white" stroke-width="2" stroke-linecap="round" stroke-linejoin="round"/>
<path d="M30 31.667C30 32.9931 28.9464 34.2648 27.0711 35.2025C25.1957 36.1402 22.6522 36.667 20 36.667" stroke="white" stroke-width="2" stroke-linecap="round" stroke-linejoin="round"/>
</g>
<defs>
<clipPath id="clip0_17_271">
<rect width="40" height="40" fill="white"/>
</clipPath>
</defs>
</svg>
