<svg width="24" height="24" viewBox="0 0 24 24" fill="none" xmlns="http://www.w3.org/2000/svg">
<path d="M21.2604 10.962C21.7344 11.582 21.7344 12.419 21.2604 13.038C19.7674 14.987 16.1854 19 12.0034 19C7.82143 19 4.23943 14.987 2.74643 13.038C2.51581 12.7411 2.39063 12.3759 2.39062 12C2.39063 11.6241 2.51581 11.2589 2.74643 10.962C4.23943 9.013 7.82143 5 12.0034 5C16.1854 5 19.7674 9.013 21.2604 10.962V10.962Z" stroke="black" stroke-width="1.5" stroke-linecap="round" stroke-linejoin="round"/>
<path d="M12 15C13.6569 15 15 13.6569 15 12C15 10.3431 13.6569 9 12 9C10.3431 9 9 10.3431 9 12C9 13.6569 10.3431 15 12 15Z" stroke="black" stroke-width="1.5" stroke-linecap="round" stroke-linejoin="round"/>
</svg>
