<svg width="40" height="40" viewBox="0 0 40 40" fill="none" xmlns="http://www.w3.org/2000/svg">
<path d="M8.0965 30.5997L8.09627 30.5995C7.22354 29.9488 6.42293 28.9211 5.84013 27.7595C5.25729 26.5978 4.91406 25.3456 4.91406 24.2671V11.8671C4.91406 9.50785 6.66889 6.96225 8.88856 6.13562L8.88952 6.13526L17.2058 3.01875C17.2059 3.01872 17.2059 3.01869 17.206 3.01866C17.9595 2.7371 18.959 2.58789 19.9807 2.58789C21.0025 2.58789 22.002 2.73711 22.7555 3.01868C22.7556 3.0187 22.7556 3.01873 22.7557 3.01875L31.0719 6.13526L31.0729 6.13562C33.2926 6.96225 35.0474 9.50785 35.0474 11.8671V24.2504C35.0474 25.3375 34.704 26.5897 34.1215 27.7488C33.539 28.9078 32.7384 29.9318 31.8652 30.5829L31.865 30.5831L24.6983 35.9331L24.6983 35.933L24.6921 35.9378C23.4094 36.9268 21.7214 37.4337 19.9974 37.4337C18.2748 37.4337 16.5826 36.9274 15.2623 35.949C15.2621 35.9489 15.2619 35.9488 15.2618 35.9487L8.0965 30.5997ZM17.7393 4.43194L17.7386 4.43219L9.42194 7.54885L9.42123 7.54912C8.59365 7.86068 7.85242 8.52296 7.3215 9.2911C6.7904 10.0595 6.43073 10.9902 6.43073 11.8837V24.2671C6.43073 25.1615 6.74131 26.1897 7.19831 27.1015C7.6552 28.0131 8.29068 28.8727 8.99825 29.401L8.99829 29.4011L16.1646 34.7508C17.2266 35.545 18.6256 35.9254 19.9995 35.9254C21.3735 35.9254 22.7757 35.5449 23.8452 34.752L23.8465 34.7511L31.0132 29.4011L31.0141 29.4004C31.7288 28.8643 32.3643 28.0055 32.8196 27.0948C33.2749 26.1842 33.5807 25.1605 33.5807 24.2671V11.8671C33.5807 10.9809 33.2203 10.0542 32.69 9.28693C32.1594 8.51938 31.4197 7.85445 30.595 7.53429L30.595 7.53425L30.5895 7.53219L22.2729 4.41552L22.2729 4.41543L22.2638 4.41223C21.6256 4.187 20.7976 4.08363 19.9981 4.08581C19.1995 4.08799 18.3726 4.19563 17.7393 4.43194ZM31.2472 5.66748L31.2472 5.66747L31.2472 5.66748Z" fill="#FAFAFA" stroke="#FAFAFA"/>
<path d="M17.4115 21.0531L17.7651 21.4067L18.1187 21.0531L24.402 14.7698C24.6901 14.4817 25.1735 14.4817 25.4615 14.7698C25.7496 15.0578 25.7496 15.5413 25.4615 15.8293L18.2949 22.996C18.1436 23.1473 17.9563 23.2162 17.7651 23.2162C17.5739 23.2162 17.3866 23.1473 17.2353 22.996L14.552 20.3127C14.2639 20.0246 14.2639 19.5412 14.552 19.2531C14.8401 18.965 15.3235 18.965 15.6115 19.2531L17.4115 21.0531Z" fill="#FAFAFA" stroke="#FAFAFA"/>
</svg>
